<svg width="432" height="295" viewBox="0 0 432 295" fill="none" xmlns="http://www.w3.org/2000/svg">
<path d="M278.293 183.942C288.938 176.674 296.801 166.062 300.615 153.82C304.429 141.578 303.971 128.418 299.315 116.466C294.659 104.513 286.076 94.4645 274.951 87.941C263.827 81.4174 244.31 81.2895 231.5 83L247 107.5C254.113 106.55 255.754 106.137 261.932 109.759C268.109 113.381 272.875 118.961 275.46 125.598C278.046 132.235 278.3 139.542 276.182 146.34C274.064 153.137 269.698 159.03 263.787 163.065L278.293 183.942Z" fill="url(#paint0_linear_73_110)"/>
<path d="M261.175 196.501C260.176 199 260.675 165.001 263.675 163.001C266.424 161.168 265.744 162.393 265.676 162.502C265.784 162.685 290.598 182.849 290.598 182.849C290.598 182.849 262.175 194.002 261.175 196.501Z" fill="#7177F4"/>
<path d="M276.783 176.294C278.746 174.353 281.912 174.37 283.854 176.333L330.676 223.67C337.003 230.066 336.946 240.379 330.55 246.706V246.706C324.154 253.032 313.841 252.976 307.514 246.58L263.505 202.087C260.009 198.553 260.041 192.855 263.574 189.359L276.783 176.294Z" fill="#7177F4"/>
<path d="M317 194C330.934 176.959 334.245 160.609 334.949 138.694C335.653 116.78 329.099 95.238 316.287 77.3544C303.475 59.4707 285.108 46.2263 263.987 39.6406C242.865 33.0548 217.5 34 199.299 40.8773L226 61.5C222 62.5 240.465 59.3135 256.172 64.2112C271.88 69.1089 285.539 78.9585 295.067 92.2582C304.595 105.558 312.523 121.202 312 137.5C311.477 153.798 308.362 162.827 298 175.5L317 194Z" fill="url(#paint1_linear_73_110)"/>
<path d="M171.353 59.2026C169.279 60.3005 167.259 61.5308 165.331 62.9058C152.69 69.5938 141.77 79.1293 133.439 90.7661C124.896 102.7 119.322 116.5 117.179 131.019C115.035 145.539 116.384 160.361 121.115 174.254C125.846 188.148 133.822 200.714 144.381 210.909C154.94 221.103 167.777 228.633 181.828 232.874C195.879 237.114 210.739 237.944 225.175 235.292C234.394 233.599 241.923 232.056 250.026 227.814L250.235 228.029C242.723 231.788 234.671 234.249 225.3 235.97C210.756 238.641 195.785 237.806 181.629 233.534C167.473 229.261 154.54 221.674 143.902 211.404C133.265 201.133 125.23 188.474 120.464 174.477C115.698 160.48 114.338 145.547 116.497 130.918C118.656 116.29 124.273 102.388 132.88 90.3647C141.487 78.3415 152.837 68.5438 165.988 61.7847C167.848 60.8287 169.634 59.9706 171.353 59.2026Z" fill="#0F3B9C" stroke="#0F3B9C" stroke-width="27"/>
<path d="M201 93C232.535 93 258 118.799 258 150.5C258 182.201 232.535 208 201 208C189.243 208 178.331 204.413 169.267 198.272L150.612 208.677L155.658 185.348C148.341 175.672 144 163.589 144 150.5C144 118.799 169.465 93 201 93ZM201 99C172.833 99 150 122.057 150 150.5C150 178.943 172.833 202 201 202C229.167 202 252 178.943 252 150.5C252 122.057 229.167 99 201 99Z" fill="#6E78F3"/>
<circle cx="235" cy="152" r="6" fill="#16D1F2"/>
<circle cx="167" cy="152" r="6" fill="#2C92F4"/>
<rect x="179" y="135" width="11" height="33" rx="5.5" fill="url(#paint2_linear_73_110)"/>
<rect x="196" y="120" width="11" height="61" rx="5.5" fill="url(#paint3_linear_73_110)"/>
<rect x="212" y="135" width="11" height="33" rx="5.5" fill="url(#paint4_linear_73_110)"/>
<line x1="92" y1="30" x2="143" y2="30" stroke="#B2D3E1" stroke-width="2" stroke-linecap="round"/>
<line x1="144.414" y1="30.9618" x2="161.962" y2="47.5863" stroke="#B2D3E1" stroke-width="2" stroke-linecap="round"/>
<g filter="url(#filter0_d_73_110)">
<circle cx="84.5" cy="31.5" r="6.5" fill="url(#paint5_radial_73_110)"/>
<circle cx="84.5" cy="31.5" r="5.5" stroke="#B2D3E1" stroke-width="2"/>
</g>
<line x1="1" y1="-1" x2="52" y2="-1" transform="matrix(-1 0 0 1 355 31)" stroke="#B2D3E1" stroke-width="2" stroke-linecap="round"/>
<line x1="1" y1="-1" x2="25.1725" y2="-1" transform="matrix(-0.725953 0.687745 0.687745 0.725953 303 31)" stroke="#B2D3E1" stroke-width="2" stroke-linecap="round"/>
<g filter="url(#filter1_d_73_110)">
<circle cx="6.5" cy="6.5" r="6.5" transform="matrix(-1 0 0 1 368 25)" fill="url(#paint6_radial_73_110)"/>
<circle cx="6.5" cy="6.5" r="5.5" transform="matrix(-1 0 0 1 368 25)" stroke="#B2D3E1" stroke-width="2"/>
</g>
<line x1="1" y1="-1" x2="52" y2="-1" transform="matrix(-1 0 0 1 393 68)" stroke="#B2D3E1" stroke-width="2" stroke-linecap="round"/>
<line x1="1" y1="-1" x2="25.1725" y2="-1" transform="matrix(-0.725953 0.687745 0.687745 0.725953 341 68)" stroke="#B2D3E1" stroke-width="2" stroke-linecap="round"/>
<g filter="url(#filter2_d_73_110)">
<circle cx="6.5" cy="6.5" r="6.5" transform="matrix(-1 0 0 1 406 62)" fill="url(#paint7_radial_73_110)"/>
<circle cx="6.5" cy="6.5" r="5.5" transform="matrix(-1 0 0 1 406 62)" stroke="#B2D3E1" stroke-width="2"/>
</g>
<line x1="358" y1="195" x2="326" y2="195" stroke="#B2D3E1" stroke-width="2" stroke-linecap="round"/>
<line x1="324.586" y1="194" x2="321" y2="190.414" stroke="#B2D3E1" stroke-width="2" stroke-linecap="round"/>
<g filter="url(#filter3_d_73_110)">
<circle cx="365.5" cy="193.5" r="6.5" transform="rotate(-180 365.5 193.5)" fill="url(#paint8_radial_73_110)"/>
<circle cx="365.5" cy="193.5" r="5.5" transform="rotate(-180 365.5 193.5)" stroke="#B2D3E1" stroke-width="2"/>
</g>
<line x1="1" y1="-1" x2="52" y2="-1" transform="matrix(1 0 0 -1 39 203)" stroke="#B2D3E1" stroke-width="2" stroke-linecap="round"/>
<line x1="1" y1="-1" x2="25.1725" y2="-1" transform="matrix(0.725953 -0.687745 -0.687745 -0.725953 91 203)" stroke="#B2D3E1" stroke-width="2" stroke-linecap="round"/>
<g filter="url(#filter4_d_73_110)">
<circle cx="6.5" cy="6.5" r="6.5" transform="matrix(1 0 0 -1 26 209)" fill="url(#paint9_radial_73_110)"/>
<circle cx="6.5" cy="6.5" r="5.5" transform="matrix(1 0 0 -1 26 209)" stroke="#B2D3E1" stroke-width="2"/>
</g>
<line x1="1" y1="-1" x2="52" y2="-1" transform="matrix(1 0 0 -1 73 247)" stroke="#B2D3E1" stroke-width="2" stroke-linecap="round"/>
<line x1="1" y1="-1" x2="25.1725" y2="-1" transform="matrix(0.725953 -0.687745 -0.687745 -0.725953 125 247)" stroke="#B2D3E1" stroke-width="2" stroke-linecap="round"/>
<g filter="url(#filter5_d_73_110)">
<circle cx="6.5" cy="6.5" r="6.5" transform="matrix(1 0 0 -1 60 253)" fill="url(#paint10_radial_73_110)"/>
<circle cx="6.5" cy="6.5" r="5.5" transform="matrix(1 0 0 -1 60 253)" stroke="#B2D3E1" stroke-width="2"/>
</g>
<line x1="358" y1="263" x2="266" y2="263" stroke="#B2D3E1" stroke-width="2" stroke-linecap="round"/>
<line x1="264.586" y1="262.038" x2="247.038" y2="245.414" stroke="#B2D3E1" stroke-width="2" stroke-linecap="round"/>
<g filter="url(#filter6_d_73_110)">
<circle cx="365.5" cy="261.5" r="6.5" transform="rotate(180 365.5 261.5)" fill="url(#paint11_radial_73_110)"/>
<circle cx="365.5" cy="261.5" r="5.5" transform="rotate(180 365.5 261.5)" stroke="#B2D3E1" stroke-width="2"/>
</g>
<defs>
<filter id="filter0_d_73_110" x="52" y="0" width="65" height="65" filterUnits="userSpaceOnUse" color-interpolation-filters="sRGB">
<feFlood flood-opacity="0" result="BackgroundImageFix"/>
<feColorMatrix in="SourceAlpha" type="matrix" values="0 0 0 0 0 0 0 0 0 0 0 0 0 0 0 0 0 0 127 0" result="hardAlpha"/>
<feMorphology radius="6" operator="dilate" in="SourceAlpha" result="effect1_dropShadow_73_110"/>
<feOffset dy="1"/>
<feGaussianBlur stdDeviation="10"/>
<feComposite in2="hardAlpha" operator="out"/>
<feColorMatrix type="matrix" values="0 0 0 0 0.184314 0 0 0 0 0.772549 0 0 0 0 0.968627 0 0 0 1 0"/>
<feBlend mode="normal" in2="BackgroundImageFix" result="effect1_dropShadow_73_110"/>
<feBlend mode="normal" in="SourceGraphic" in2="effect1_dropShadow_73_110" result="shape"/>
</filter>
<filter id="filter1_d_73_110" x="329" y="0" width="65" height="65" filterUnits="userSpaceOnUse" color-interpolation-filters="sRGB">
<feFlood flood-opacity="0" result="BackgroundImageFix"/>
<feColorMatrix in="SourceAlpha" type="matrix" values="0 0 0 0 0 0 0 0 0 0 0 0 0 0 0 0 0 0 127 0" result="hardAlpha"/>
<feMorphology radius="6" operator="dilate" in="SourceAlpha" result="effect1_dropShadow_73_110"/>
<feOffset dy="1"/>
<feGaussianBlur stdDeviation="10"/>
<feComposite in2="hardAlpha" operator="out"/>
<feColorMatrix type="matrix" values="0 0 0 0 0.184314 0 0 0 0 0.772549 0 0 0 0 0.968627 0 0 0 1 0"/>
<feBlend mode="normal" in2="BackgroundImageFix" result="effect1_dropShadow_73_110"/>
<feBlend mode="normal" in="SourceGraphic" in2="effect1_dropShadow_73_110" result="shape"/>
</filter>
<filter id="filter2_d_73_110" x="367" y="37" width="65" height="65" filterUnits="userSpaceOnUse" color-interpolation-filters="sRGB">
<feFlood flood-opacity="0" result="BackgroundImageFix"/>
<feColorMatrix in="SourceAlpha" type="matrix" values="0 0 0 0 0 0 0 0 0 0 0 0 0 0 0 0 0 0 127 0" result="hardAlpha"/>
<feMorphology radius="6" operator="dilate" in="SourceAlpha" result="effect1_dropShadow_73_110"/>
<feOffset dy="1"/>
<feGaussianBlur stdDeviation="10"/>
<feComposite in2="hardAlpha" operator="out"/>
<feColorMatrix type="matrix" values="0 0 0 0 0.184314 0 0 0 0 0.772549 0 0 0 0 0.968627 0 0 0 1 0"/>
<feBlend mode="normal" in2="BackgroundImageFix" result="effect1_dropShadow_73_110"/>
<feBlend mode="normal" in="SourceGraphic" in2="effect1_dropShadow_73_110" result="shape"/>
</filter>
<filter id="filter3_d_73_110" x="333" y="162" width="65" height="65" filterUnits="userSpaceOnUse" color-interpolation-filters="sRGB">
<feFlood flood-opacity="0" result="BackgroundImageFix"/>
<feColorMatrix in="SourceAlpha" type="matrix" values="0 0 0 0 0 0 0 0 0 0 0 0 0 0 0 0 0 0 127 0" result="hardAlpha"/>
<feMorphology radius="6" operator="dilate" in="SourceAlpha" result="effect1_dropShadow_73_110"/>
<feOffset dy="1"/>
<feGaussianBlur stdDeviation="10"/>
<feComposite in2="hardAlpha" operator="out"/>
<feColorMatrix type="matrix" values="0 0 0 0 0.184314 0 0 0 0 0.772549 0 0 0 0 0.968627 0 0 0 1 0"/>
<feBlend mode="normal" in2="BackgroundImageFix" result="effect1_dropShadow_73_110"/>
<feBlend mode="normal" in="SourceGraphic" in2="effect1_dropShadow_73_110" result="shape"/>
</filter>
<filter id="filter4_d_73_110" x="0" y="171" width="65" height="65" filterUnits="userSpaceOnUse" color-interpolation-filters="sRGB">
<feFlood flood-opacity="0" result="BackgroundImageFix"/>
<feColorMatrix in="SourceAlpha" type="matrix" values="0 0 0 0 0 0 0 0 0 0 0 0 0 0 0 0 0 0 127 0" result="hardAlpha"/>
<feMorphology radius="6" operator="dilate" in="SourceAlpha" result="effect1_dropShadow_73_110"/>
<feOffset dy="1"/>
<feGaussianBlur stdDeviation="10"/>
<feComposite in2="hardAlpha" operator="out"/>
<feColorMatrix type="matrix" values="0 0 0 0 0.184314 0 0 0 0 0.772549 0 0 0 0 0.968627 0 0 0 1 0"/>
<feBlend mode="normal" in2="BackgroundImageFix" result="effect1_dropShadow_73_110"/>
<feBlend mode="normal" in="SourceGraphic" in2="effect1_dropShadow_73_110" result="shape"/>
</filter>
<filter id="filter5_d_73_110" x="34" y="215" width="65" height="65" filterUnits="userSpaceOnUse" color-interpolation-filters="sRGB">
<feFlood flood-opacity="0" result="BackgroundImageFix"/>
<feColorMatrix in="SourceAlpha" type="matrix" values="0 0 0 0 0 0 0 0 0 0 0 0 0 0 0 0 0 0 127 0" result="hardAlpha"/>
<feMorphology radius="6" operator="dilate" in="SourceAlpha" result="effect1_dropShadow_73_110"/>
<feOffset dy="1"/>
<feGaussianBlur stdDeviation="10"/>
<feComposite in2="hardAlpha" operator="out"/>
<feColorMatrix type="matrix" values="0 0 0 0 0.184314 0 0 0 0 0.772549 0 0 0 0 0.968627 0 0 0 1 0"/>
<feBlend mode="normal" in2="BackgroundImageFix" result="effect1_dropShadow_73_110"/>
<feBlend mode="normal" in="SourceGraphic" in2="effect1_dropShadow_73_110" result="shape"/>
</filter>
<filter id="filter6_d_73_110" x="333" y="230" width="65" height="65" filterUnits="userSpaceOnUse" color-interpolation-filters="sRGB">
<feFlood flood-opacity="0" result="BackgroundImageFix"/>
<feColorMatrix in="SourceAlpha" type="matrix" values="0 0 0 0 0 0 0 0 0 0 0 0 0 0 0 0 0 0 127 0" result="hardAlpha"/>
<feMorphology radius="6" operator="dilate" in="SourceAlpha" result="effect1_dropShadow_73_110"/>
<feOffset dy="1"/>
<feGaussianBlur stdDeviation="10"/>
<feComposite in2="hardAlpha" operator="out"/>
<feColorMatrix type="matrix" values="0 0 0 0 0.184314 0 0 0 0 0.772549 0 0 0 0 0.968627 0 0 0 1 0"/>
<feBlend mode="normal" in2="BackgroundImageFix" result="effect1_dropShadow_73_110"/>
<feBlend mode="normal" in="SourceGraphic" in2="effect1_dropShadow_73_110" result="shape"/>
</filter>
<linearGradient id="paint0_linear_73_110" x1="242.5" y1="92" x2="281.5" y2="171.5" gradientUnits="userSpaceOnUse">
<stop stop-color="#1FBCEF"/>
<stop offset="1" stop-color="#20B0EC"/>
</linearGradient>
<linearGradient id="paint1_linear_73_110" x1="227" y1="45.5" x2="322" y2="180.5" gradientUnits="userSpaceOnUse">
<stop stop-color="#7282F2"/>
<stop offset="1" stop-color="#8776F6"/>
</linearGradient>
<linearGradient id="paint2_linear_73_110" x1="184.5" y1="135" x2="184.5" y2="168" gradientUnits="userSpaceOnUse">
<stop stop-color="#2EA5D6"/>
<stop offset="1" stop-color="#33A4F0"/>
</linearGradient>
<linearGradient id="paint3_linear_73_110" x1="201.5" y1="120" x2="201.5" y2="181" gradientUnits="userSpaceOnUse">
<stop stop-color="#33D1F6"/>
<stop offset="1" stop-color="#1CA4EF"/>
</linearGradient>
<linearGradient id="paint4_linear_73_110" x1="217.5" y1="135" x2="217.5" y2="168" gradientUnits="userSpaceOnUse">
<stop stop-color="#2ACDEF"/>
<stop offset="1" stop-color="#21C3ED"/>
</linearGradient>
<radialGradient id="paint5_radial_73_110" cx="0" cy="0" r="1" gradientUnits="userSpaceOnUse" gradientTransform="translate(84.5 31.5) rotate(90) scale(6.5)">
<stop stop-color="#2CC4F7"/>
<stop offset="1" stop-color="#44CDF7"/>
</radialGradient>
<radialGradient id="paint6_radial_73_110" cx="0" cy="0" r="1" gradientUnits="userSpaceOnUse" gradientTransform="translate(6.5 6.5) rotate(90) scale(6.5)">
<stop stop-color="#2CC4F7"/>
<stop offset="1" stop-color="#44CDF7"/>
</radialGradient>
<radialGradient id="paint7_radial_73_110" cx="0" cy="0" r="1" gradientUnits="userSpaceOnUse" gradientTransform="translate(6.5 6.5) rotate(90) scale(6.5)">
<stop stop-color="#2CC4F7"/>
<stop offset="1" stop-color="#44CDF7"/>
</radialGradient>
<radialGradient id="paint8_radial_73_110" cx="0" cy="0" r="1" gradientUnits="userSpaceOnUse" gradientTransform="translate(365.5 193.5) rotate(90) scale(6.5)">
<stop stop-color="#2CC4F7"/>
<stop offset="1" stop-color="#44CDF7"/>
</radialGradient>
<radialGradient id="paint9_radial_73_110" cx="0" cy="0" r="1" gradientUnits="userSpaceOnUse" gradientTransform="translate(6.5 6.5) rotate(90) scale(6.5)">
<stop stop-color="#2CC4F7"/>
<stop offset="1" stop-color="#44CDF7"/>
</radialGradient>
<radialGradient id="paint10_radial_73_110" cx="0" cy="0" r="1" gradientUnits="userSpaceOnUse" gradientTransform="translate(6.5 6.5) rotate(90) scale(6.5)">
<stop stop-color="#2CC4F7"/>
<stop offset="1" stop-color="#44CDF7"/>
</radialGradient>
<radialGradient id="paint11_radial_73_110" cx="0" cy="0" r="1" gradientUnits="userSpaceOnUse" gradientTransform="translate(365.5 261.5) rotate(90) scale(6.5)">
<stop stop-color="#2CC4F7"/>
<stop offset="1" stop-color="#44CDF7"/>
</radialGradient>
</defs>
</svg>
