<svg width="396" height="114" viewBox="0 0 396 114" fill="none" xmlns="http://www.w3.org/2000/svg">
<mask id="mask0_7_13" style="mask-type:alpha" maskUnits="userSpaceOnUse" x="2" y="21" width="394" height="75">
<path d="M2.016 23.128C6.624 22.488 10.272 22.008 12.96 21.688C15.712 21.368 18.528 21.208 21.408 21.208C26.592 21.208 31.04 21.816 34.752 23.032C38.528 24.248 41.696 26.328 44.256 29.272C48.864 34.968 51.168 40.248 51.168 45.112C51.168 47.864 50.56 50.68 49.344 53.56C48.128 56.376 46.368 58.808 44.064 60.856C41.76 62.904 39.04 64.088 35.904 64.408C37.056 66.456 39.072 69.592 41.952 73.816C44.512 77.528 46.592 80.76 48.192 83.512C49.792 86.264 51.168 89.208 52.32 92.344L52.896 93.592H51.552C50.528 93.592 48.8 93.656 46.368 93.784C43.552 93.912 41.408 93.976 39.936 93.976C38.592 93.976 36.896 93.912 34.848 93.784C34.72 93.592 34.592 93.304 34.464 92.92C34.336 92.6 34.144 92.344 33.888 92.152C33.696 91.96 33.376 91.864 32.928 91.864C29.6 83.992 26.176 77.336 22.656 71.896V74.392C22.656 76.184 22.816 79.96 23.136 85.72C23.328 88.408 23.424 90.648 23.424 92.44C22.08 93.08 20.576 93.496 18.912 93.688C17.312 93.88 15.392 93.976 13.152 93.976L8.928 93.88H3.36C3.296 92.6 3.264 91.224 3.264 89.752L3.168 81.016V73.24C3.168 63.256 3.04 53.016 2.784 42.52C2.592 32.024 2.336 25.56 2.016 23.128ZM32.928 61.624C36.192 61.368 38.976 60.312 41.28 58.456C43.584 56.536 45.312 54.2 46.464 51.448C47.616 48.696 48.192 45.944 48.192 43.192C48.192 39.8 47.328 36.536 45.6 33.4C43.936 30.264 41.568 27.704 38.496 25.72C35.488 23.736 32.128 22.68 28.416 22.552C26.304 22.296 23.936 22.168 21.312 22.168C18.432 22.168 15.712 22.328 13.152 22.648C10.656 22.904 7.328 23.32 3.168 23.896C3.488 25.752 3.744 31.448 3.936 40.984C4.128 50.52 4.224 60.696 4.224 71.512V81.4C4.224 84.472 4.192 86.616 4.128 87.832V90.808C4.32 90.872 4.544 90.904 4.8 90.904C5.632 90.904 6.304 90.936 6.816 91L10.656 91.096C13.024 91.096 15.008 91.032 16.608 90.904C18.208 90.712 19.52 90.392 20.544 89.944C20.032 83.608 19.776 77.816 19.776 72.568C19.776 70.136 19.872 68.12 20.064 66.52L20.256 66.808C22.688 69.752 25.088 73.496 27.456 78.04C29.824 82.52 31.872 86.808 33.6 90.904H33.696C35.872 91.032 37.536 91.096 38.688 91.096C40.096 91.096 42.08 91.032 44.64 90.904C46.944 90.776 48.576 90.712 49.536 90.712C48.384 87.64 46.944 84.664 45.216 81.784C43.488 78.84 41.376 75.544 38.88 71.896C38.24 70.872 37.216 69.336 35.808 67.288C34.464 65.176 33.344 63.32 32.448 61.72L32.928 61.624ZM24 35.8C26.176 35.8 27.968 36.472 29.376 37.816C30.784 39.096 31.488 40.856 31.488 43.096C31.488 45.4 30.816 47.032 29.472 47.992C28.192 48.952 26.08 49.432 23.136 49.432C21.152 49.432 19.36 49.336 17.76 49.144H17.664C17.472 48.056 17.376 45.816 17.376 42.424L17.184 37.336C19.488 36.312 21.76 35.8 24 35.8ZM25.92 38.68C24.128 38.68 22.176 39.096 20.064 39.928C20.192 41.592 20.256 43.064 20.256 44.344L20.16 47.128L20.256 48.472H23.136C24.608 48.472 26.016 48.376 27.36 48.184H27.264C28.352 47.928 29.184 47.352 29.76 46.456C30.336 45.496 30.624 44.376 30.624 43.096C30.624 40.152 29.056 38.68 25.92 38.68ZM66.5123 71.608C66.5123 73.272 66.6083 74.648 66.8003 75.736C67.0563 76.76 67.5363 77.88 68.2403 79.096V79.288C69.0723 79.736 70.0963 79.96 71.3123 79.96C72.6563 79.96 73.7763 79.352 74.6723 78.136C75.5683 76.856 76.0163 74.968 76.0163 72.472V71.512C77.4243 71.64 78.4803 71.704 79.1843 71.704L82.5443 71.608C83.2483 71.544 84.3363 71.512 85.8083 71.512C86.8963 71.512 88.3363 71.672 90.1283 71.992L90.0323 73.624L92.0483 73.912C92.0483 80.824 91.2803 85.784 89.7443 88.792C88.2723 91.8 86.3523 93.592 83.9843 94.168C81.6803 94.808 78.1283 95.128 73.3282 95.128C69.4883 95.128 66.4163 94.84 64.1123 94.264C61.8723 93.752 59.9523 92.536 58.3523 90.616C55.4083 88.184 53.2323 84.696 51.8242 80.152C50.4163 75.608 49.7123 70.68 49.7123 65.368C49.7123 59.16 50.4483 54.072 51.9203 50.104C53.2643 47.032 55.6003 44.696 58.9283 43.096C62.2563 41.432 65.9683 40.6 70.0643 40.6C74.9923 40.6 79.1203 41.656 82.4483 43.768C85.8403 45.88 88.3363 48.728 89.9363 52.312C91.6003 55.832 92.4323 59.704 92.4323 63.928C92.4323 64.312 92.3363 65.944 92.1443 68.824C90.9283 69.144 87.6963 69.432 82.4483 69.688C77.2643 69.944 72.6563 70.072 68.6243 70.072C67.6643 70.072 66.9603 70.04 66.5123 69.976V71.608ZM63.6323 66.904C64.4003 67.096 66.6083 67.192 70.2563 67.192C73.7763 67.192 77.5843 67.096 81.6803 66.904C85.7763 66.648 88.3363 66.392 89.3603 66.136C89.4883 64.216 89.5523 62.84 89.5523 62.008C89.5523 55.608 88.1123 50.616 85.2323 47.032C82.4163 43.384 77.3603 41.56 70.0643 41.56C66.2243 41.56 62.6723 42.36 59.4083 43.96C56.2083 45.496 54.0003 47.64 52.7843 50.392C51.3123 54.36 50.5763 59.672 50.5763 66.328C50.5763 72.984 51.6963 78.744 53.9363 83.608C56.1763 88.472 59.6643 91.256 64.4003 91.96L68.6243 92.056C70.8003 92.184 72.4963 92.248 73.7123 92.248C76.7203 92.248 79.2803 91.928 81.3923 91.288C83.5683 90.648 85.2643 89.464 86.4803 87.736C87.3123 87.032 87.8883 85.56 88.2083 83.32C88.5283 81.016 88.8483 77.496 89.1683 72.76C88.2083 72.568 86.9603 72.472 85.4243 72.472L81.6803 72.568C80.9123 72.632 79.8563 72.664 78.5123 72.664C77.7443 72.664 77.2643 72.632 77.0723 72.568V73.336C77.0723 75.832 76.4963 77.72 75.3443 79C74.2563 80.28 72.9123 80.92 71.3123 80.92C66.3843 80.92 63.8243 76.824 63.6323 68.632V66.904ZM78.9923 59.32C78.9923 59.512 78.7683 59.608 78.3203 59.608C78.0003 59.608 77.3603 59.576 76.4003 59.512C75.4403 59.448 74.2883 59.416 72.9443 59.416L66.7043 59.512C65.4883 59.512 64.6883 59.448 64.3043 59.32C63.9203 59.192 63.7283 58.904 63.7283 58.456C63.7283 53.528 66.4483 51.064 71.8883 51.064C73.1043 51.064 74.2243 51.384 75.2483 52.024C76.4003 52.6 77.2963 53.464 77.9363 54.616C78.6403 55.768 78.9923 56.984 78.9923 58.264V59.32ZM76.6883 54.712C75.8563 54.2 74.8963 53.944 73.8083 53.944C71.5683 53.944 69.9363 54.328 68.9123 55.096C67.9523 55.864 67.2803 57.016 66.8963 58.552L68.7203 58.456H72.9443L77.0723 58.552L78.0323 58.648V58.264C78.0323 56.792 77.6163 55.64 76.7843 54.808L76.6883 54.712ZM135.281 60.664C133.041 61.048 130.577 61.24 127.889 61.24C125.649 61.24 123.089 60.984 120.209 60.472L120.305 59.704C120.305 59.32 120.145 59.064 119.825 58.936C119.505 58.744 119.185 58.648 118.865 58.648C118.545 58.584 118.353 58.552 118.289 58.552L118.385 57.784C118.385 56.76 118.065 56.056 117.425 55.672C116.785 55.224 115.953 54.904 114.929 54.712C113.777 55.032 112.881 55.512 112.241 56.152C111.601 56.792 111.281 57.496 111.281 58.264C111.281 59.48 111.921 60.344 113.201 60.856L113.009 60.76C120.177 61.912 125.713 63.768 129.617 66.328C133.521 68.888 135.473 72.952 135.473 78.52C135.473 84.408 133.553 88.696 129.713 91.384C125.873 94.072 120.817 95.416 114.545 95.416C110.065 95.416 106.065 94.552 102.545 92.824C99.0245 91.16 96.2725 88.888 94.2885 86.008C92.3685 83.064 91.4085 79.864 91.4085 76.408V75.064C93.3925 74.808 95.5685 74.68 97.9365 74.68L102.929 74.776C103.953 74.84 105.457 74.872 107.441 74.872C107.441 75.384 107.601 76.024 107.921 76.792H109.361C109.361 79.032 110.801 80.152 113.681 80.152C116.305 80.152 117.617 78.872 117.617 76.312C117.617 75.352 117.105 74.68 116.081 74.296C115.121 73.848 113.553 73.4 111.377 72.952C108.625 72.44 106.513 71.864 105.041 71.224H105.137C101.233 69.88 98.1285 67.704 95.8245 64.696C93.5205 61.624 92.3685 58.456 92.3685 55.192C92.3685 52.184 93.3285 49.336 95.2485 46.648C97.2325 43.96 99.8245 42.136 103.025 41.176C105.201 40.536 108.529 40.216 113.009 40.216C117.297 40.216 120.817 40.536 123.569 41.176C126.321 41.816 128.561 43.224 130.289 45.4C134.129 48.536 136.049 53.304 136.049 59.704L135.281 60.664ZM124.817 42.328C121.361 41.56 117.425 41.176 113.009 41.176C99.8885 41.176 93.3285 45.848 93.3285 55.192C93.3285 58.072 94.1925 60.728 95.9205 63.16C97.6485 65.528 100.177 67.288 103.505 68.44C105.041 69.144 107.473 69.816 110.801 70.456C113.553 71.096 115.537 71.736 116.753 72.376C117.969 73.016 118.577 74.104 118.577 75.64C118.577 77.56 118.161 78.968 117.329 79.864C116.497 80.696 115.281 81.112 113.681 81.112C111.889 81.112 110.289 80.632 108.881 79.672C107.473 78.712 106.705 77.432 106.577 75.832L95.5365 75.736C94.0645 75.736 93.0085 75.8 92.3685 75.928V76.408C92.3685 81.336 94.2245 85.272 97.9365 88.216C101.649 91.096 106.545 92.536 112.625 92.536C118.449 92.536 123.217 91.352 126.929 88.984C130.641 86.552 132.497 82.424 132.497 76.6C132.497 73.272 131.729 70.616 130.193 68.632C128.657 66.648 126.513 65.176 123.761 64.216C121.073 63.256 117.457 62.424 112.913 61.72C111.441 61.208 110.321 60.472 109.553 59.512C108.785 58.552 108.401 57.528 108.401 56.44C108.401 55.352 108.817 54.328 109.649 53.368C110.545 52.344 111.761 51.832 113.297 51.832C114.769 51.832 116.177 52.376 117.521 53.464C118.865 54.552 119.536 55.736 119.536 57.016C119.536 57.4 119.505 57.656 119.441 57.784C121.425 58.168 123.601 58.36 125.969 58.36C128.593 58.36 130.993 58.168 133.169 57.784C133.169 54.136 132.497 50.968 131.153 48.28C129.809 45.528 127.697 43.544 124.817 42.328ZM137.987 46.84C138.947 44.792 140.835 43.256 143.651 42.232C146.531 41.208 149.763 40.696 153.347 40.696C153.859 40.76 155.043 40.792 156.899 40.792L159.203 40.696C161.635 40.696 164.003 41.08 166.307 41.848C168.611 42.616 170.531 43.736 172.067 45.208H171.971C172.163 45.464 172.451 45.816 172.835 46.264C173.219 46.648 173.571 46.936 173.891 47.128L173.795 47.032C175.523 48.184 176.675 50.488 177.251 53.944C177.891 57.4 178.211 61.688 178.211 66.808C178.211 71.352 177.923 76.056 177.347 80.92C176.771 85.784 175.971 88.792 174.947 89.944C173.603 91.864 171.779 93.176 169.475 93.88C167.171 94.584 164.483 94.936 161.411 94.936C158.147 94.936 155.491 94.84 153.443 94.648C151.459 94.456 149.475 93.912 147.491 93.016C145.571 92.184 143.715 90.84 141.923 88.984L141.059 88.12C139.075 86.264 137.731 83.896 137.027 81.016C136.323 78.072 135.971 74.648 135.971 70.744V67.288L136.067 64.024C136.067 63.256 136.035 62.52 135.971 61.816C135.907 61.112 135.875 60.472 135.875 59.896C135.875 57.144 135.939 55.064 136.067 53.656C136.195 52.248 136.675 50.552 137.507 48.568H137.411C137.475 48.184 137.539 47.8 137.603 47.416C137.731 47.032 137.859 46.776 137.987 46.648V46.744L137.891 47.032L137.987 46.84ZM136.931 63.832V70.936C136.931 76.568 137.859 81.24 139.715 84.952C141.635 88.6 145.059 90.84 149.987 91.672L154.499 91.768C156.675 91.896 158.371 91.96 159.587 91.96C162.595 91.96 165.155 91.64 167.267 91C169.379 90.36 171.043 89.176 172.259 87.448C173.347 86.36 174.051 83.928 174.371 80.152C174.755 76.376 175.075 71.288 175.331 64.888C175.331 64.312 175.267 62.264 175.139 58.744C175.011 55.16 174.627 52.312 173.987 50.2C173.411 48.024 172.547 46.584 171.395 45.88C168.515 43.064 164.323 41.656 158.819 41.656L155.171 41.752C154.339 41.752 153.699 41.72 153.251 41.656C149.987 41.656 146.979 42.136 144.227 43.096C141.475 44.056 139.683 45.432 138.851 47.224C138.147 49.72 137.635 51.928 137.315 53.848C136.995 55.768 136.835 57.752 136.835 59.8L136.931 63.832ZM156.611 56.152C161.091 56.152 163.331 59.48 163.331 66.136C163.331 68.888 163.203 71.096 162.947 72.76C162.691 74.36 162.019 75.672 160.931 76.696C159.843 77.72 158.179 78.232 155.939 78.232C154.019 78.232 152.451 77.816 151.235 76.984C150.019 76.152 149.411 74.808 149.411 72.952C149.475 72.12 149.507 70.648 149.507 68.536C149.507 65.592 149.571 63.32 149.699 61.72C149.891 60.056 150.275 59 150.851 58.552C152.131 56.952 154.051 56.152 156.611 56.152ZM153.347 61.24C152.835 61.56 152.515 63.032 152.387 65.656C152.323 68.216 152.291 71.32 152.291 74.968C152.291 75.992 152.611 76.632 153.251 76.888C153.891 77.144 154.787 77.272 155.939 77.272C159.843 77.272 161.795 75.928 161.795 73.24C162.179 69.784 162.371 67.288 162.371 65.752C162.371 63.64 162.115 62.008 161.603 60.856C161.155 59.704 160.067 59.128 158.339 59.128C157.955 59.128 157.251 59.192 156.227 59.32H156.323C155.107 59.64 154.179 60.216 153.539 61.048L153.347 61.24ZM196.475 45.4C199.611 43.48 203.003 42.52 206.651 42.52C208.699 42.52 210.683 42.872 212.603 43.576C214.523 44.28 215.963 45.368 216.923 46.84L218.075 47.704C219.739 48.984 220.571 54.36 220.571 63.832C220.571 66.328 220.507 70.072 220.379 75.064C220.251 79.928 220.187 83.48 220.187 85.72C220.187 88.28 220.251 90.904 220.379 93.592C218.075 93.912 215.387 94.072 212.315 94.072H206.555C206.491 93.624 206.459 92.984 206.459 92.152H204.635C204.443 90.168 204.347 86.296 204.347 80.536V75.736C204.347 72.024 204.283 69.144 204.155 67.096C204.027 65.048 203.675 63.32 203.099 61.912C202.587 61.72 201.915 61.624 201.083 61.624C199.163 61.624 197.819 62.264 197.051 63.544C196.347 64.824 195.995 67.288 195.995 70.936C195.995 72.664 196.059 75.064 196.187 78.136C196.315 81.336 196.379 83.672 196.379 85.144C196.379 87.896 196.251 90.296 195.995 92.344V93.4C193.755 93.976 191.899 94.264 190.427 94.264C189.531 94.264 188.827 94.232 188.315 94.168L186.011 94.072H184.955C183.995 94.072 183.067 94.136 182.171 94.264V92.152L180.251 92.344L180.155 74.2C180.027 66.136 179.963 60.024 179.963 55.864C179.963 52.472 180.027 47.896 180.155 42.136C181.691 42.328 183.131 42.424 184.475 42.424C184.987 42.424 185.819 42.328 186.971 42.136C188.187 41.944 189.819 41.848 191.867 41.848C193.595 41.848 194.491 42.232 194.555 43C194.555 43.384 194.843 43.736 195.419 44.056C196.059 44.312 196.411 44.6 196.475 44.92V45.4ZM192.443 42.712C190.651 42.712 188.635 42.872 186.395 43.192C185.371 43.32 184.731 43.384 184.475 43.384H183.323C182.491 43.384 181.755 43.32 181.115 43.192C180.987 45.176 180.923 48.088 180.923 51.928V57.784C180.923 61.688 180.987 67.352 181.115 74.776L181.211 91.288C181.979 91.224 183.003 91.192 184.283 91.192L188.891 91.288C190.235 91.288 191.643 91.096 193.115 90.712V90.328C193.371 88.216 193.499 85.848 193.499 83.224C193.499 81.56 193.435 79.128 193.307 75.928C193.179 72.728 193.115 70.296 193.115 68.632C193.115 64.792 193.595 62.2 194.555 60.856C195.515 59.448 197.051 58.744 199.163 58.744C201.467 58.744 202.939 59.448 203.579 60.856C204.283 62.2 204.699 63.736 204.827 65.464C204.955 67.128 205.051 68.28 205.115 68.92C205.243 69.88 205.307 71.416 205.307 73.528V76.888V83.992V87.064C205.307 88.984 205.371 90.36 205.499 91.192L211.067 91.288C213.371 91.288 215.515 91.128 217.499 90.808C217.371 88.376 217.307 86.36 217.307 84.76C217.307 82.52 217.371 78.904 217.499 73.912C217.627 68.664 217.691 64.824 217.691 62.392C217.691 57.976 217.531 54.424 217.211 51.736C216.891 48.984 216.315 47.224 215.483 46.456C213.307 44.472 210.331 43.48 206.555 43.48C204.507 43.48 202.683 43.8 201.083 44.44C199.483 45.08 197.979 45.816 196.571 46.648C195.163 47.416 194.235 47.928 193.787 48.184L193.883 45.976C193.883 43.8 193.403 42.712 192.443 42.712ZM265.805 45.016C265.933 46.04 265.997 46.84 265.997 47.416V48.376C265.933 50.104 265.901 52.6 265.901 55.864L265.997 66.616C266.061 69.048 266.093 72.664 266.093 77.464C266.093 81.24 265.997 85.112 265.805 89.08V89.752C265.805 91.096 265.709 92.088 265.517 92.728C265.325 93.368 264.749 93.784 263.789 93.976H262.445C261.549 93.976 260.397 93.912 258.989 93.784L256.205 93.688C255.757 93.688 255.085 93.752 254.189 93.88L252.077 93.976C251.053 93.72 250.381 93.08 250.061 92.056C249.229 91.736 248.717 91.384 248.525 91C245.197 93.048 241.901 94.072 238.637 94.072C235.245 94.072 232.237 92.6 229.613 89.656C227.053 86.712 225.069 83.032 223.661 78.616C222.317 74.136 221.645 69.752 221.645 65.464C221.645 60.6 222.477 56.44 224.141 52.984C225.805 49.464 228.077 46.808 230.957 45.016C233.901 43.224 237.197 42.328 240.845 42.328C242.637 42.328 244.013 42.456 244.973 42.712C245.997 42.968 246.925 43.608 247.757 44.632C247.821 44.312 247.885 43.8 247.949 43.096C248.013 42.392 248.173 41.944 248.429 41.752C248.685 41.56 249.101 41.464 249.677 41.464C250.253 41.464 250.765 41.528 251.213 41.656C251.725 41.72 252.205 41.752 252.653 41.752H253.517C255.181 41.752 258.349 41.912 263.021 42.232L263.885 43.096L263.981 44.152H264.941L265.805 45.016ZM252.461 42.712L249.869 42.616C249.229 42.616 248.845 43.032 248.717 43.864C248.589 44.632 248.525 45.752 248.525 47.224V47.704C247.949 46.296 247.213 45.272 246.317 44.632C245.421 43.992 244.429 43.608 243.341 43.48C242.253 43.352 240.717 43.288 238.733 43.288C235.725 43.352 232.973 44.376 230.477 46.36C228.045 48.28 226.125 50.904 224.717 54.232C223.309 57.56 222.605 61.304 222.605 65.464C222.605 69.24 223.117 73.112 224.141 77.08C225.165 81.048 226.733 84.408 228.845 87.16C231.021 89.848 233.645 91.192 236.717 91.192C238.893 91.192 241.133 90.68 243.437 89.656C245.805 88.568 247.789 87.224 249.389 85.624C249.389 86.008 249.325 86.552 249.197 87.256C249.069 87.896 249.005 88.472 249.005 88.984C249.005 90.072 249.389 90.776 250.157 91.096C250.669 91.096 251.373 91.032 252.269 90.904L254.285 90.808L257.453 90.904C258.861 91.032 259.885 91.096 260.525 91.096H261.677C262.189 90.968 262.509 90.712 262.637 90.328C262.829 89.88 262.925 89.272 262.925 88.504V87.16C263.181 83.384 263.309 79.192 263.309 74.584L263.213 64.024C263.085 59.288 263.021 55.704 263.021 53.272C263.021 50.264 263.053 47.992 263.117 46.456V45.496C263.117 44.984 263.053 44.216 262.925 43.192C261.133 43.064 257.997 42.904 253.517 42.712H252.461ZM243.917 56.152C245.517 56.152 246.637 56.312 247.277 56.632C247.981 56.888 248.429 57.496 248.621 58.456C248.813 59.352 248.909 60.888 248.909 63.064V68.344C248.909 70.648 248.781 72.44 248.525 73.72C248.333 75 247.789 75.992 246.893 76.696C246.061 77.4 244.749 77.752 242.957 77.752C240.333 77.752 238.253 76.76 236.717 74.776C235.181 72.792 234.413 70.328 234.413 67.384C234.413 65.272 234.605 63.576 234.989 62.296C235.373 60.568 236.333 59.128 237.869 57.976C239.405 56.76 241.421 56.152 243.917 56.152ZM237.869 64.504C237.485 65.784 237.293 67.384 237.293 69.304C237.293 74.296 239.181 76.792 242.957 76.792C244.557 76.792 245.709 76.44 246.413 75.736C247.117 75.032 247.533 74.072 247.661 72.856C247.853 71.64 247.949 69.784 247.949 67.288V64.792L248.045 61.912C248.045 60.888 247.885 60.152 247.565 59.704C247.309 59.256 246.733 59.032 245.837 59.032C243.597 59.032 241.805 59.544 240.461 60.568C239.117 61.592 238.253 62.872 237.869 64.408V64.504ZM285.35 45.4C288.486 43.48 291.878 42.52 295.526 42.52C297.574 42.52 299.558 42.872 301.478 43.576C303.398 44.28 304.838 45.368 305.798 46.84L306.95 47.704C308.614 48.984 309.446 54.36 309.446 63.832C309.446 66.328 309.382 70.072 309.254 75.064C309.126 79.928 309.062 83.48 309.062 85.72C309.062 88.28 309.126 90.904 309.254 93.592C306.95 93.912 304.262 94.072 301.19 94.072H295.43C295.366 93.624 295.334 92.984 295.334 92.152H293.51C293.318 90.168 293.222 86.296 293.222 80.536V75.736C293.222 72.024 293.158 69.144 293.03 67.096C292.902 65.048 292.55 63.32 291.974 61.912C291.462 61.72 290.79 61.624 289.958 61.624C288.038 61.624 286.694 62.264 285.926 63.544C285.222 64.824 284.87 67.288 284.87 70.936C284.87 72.664 284.934 75.064 285.062 78.136C285.19 81.336 285.254 83.672 285.254 85.144C285.254 87.896 285.126 90.296 284.87 92.344V93.4C282.63 93.976 280.774 94.264 279.302 94.264C278.406 94.264 277.702 94.232 277.19 94.168L274.886 94.072H273.83C272.87 94.072 271.942 94.136 271.046 94.264V92.152L269.126 92.344L269.03 74.2C268.902 66.136 268.838 60.024 268.838 55.864C268.838 52.472 268.902 47.896 269.03 42.136C270.566 42.328 272.006 42.424 273.35 42.424C273.862 42.424 274.694 42.328 275.846 42.136C277.062 41.944 278.694 41.848 280.742 41.848C282.47 41.848 283.366 42.232 283.43 43C283.43 43.384 283.718 43.736 284.294 44.056C284.934 44.312 285.286 44.6 285.35 44.92V45.4ZM281.318 42.712C279.526 42.712 277.51 42.872 275.27 43.192C274.246 43.32 273.606 43.384 273.35 43.384H272.198C271.366 43.384 270.63 43.32 269.99 43.192C269.862 45.176 269.798 48.088 269.798 51.928V57.784C269.798 61.688 269.862 67.352 269.99 74.776L270.086 91.288C270.854 91.224 271.878 91.192 273.158 91.192L277.766 91.288C279.11 91.288 280.518 91.096 281.99 90.712V90.328C282.246 88.216 282.374 85.848 282.374 83.224C282.374 81.56 282.31 79.128 282.182 75.928C282.054 72.728 281.99 70.296 281.99 68.632C281.99 64.792 282.47 62.2 283.43 60.856C284.39 59.448 285.926 58.744 288.038 58.744C290.342 58.744 291.814 59.448 292.454 60.856C293.158 62.2 293.574 63.736 293.702 65.464C293.83 67.128 293.926 68.28 293.99 68.92C294.118 69.88 294.182 71.416 294.182 73.528V76.888V83.992V87.064C294.182 88.984 294.246 90.36 294.374 91.192L299.942 91.288C302.246 91.288 304.39 91.128 306.374 90.808C306.246 88.376 306.182 86.36 306.182 84.76C306.182 82.52 306.246 78.904 306.374 73.912C306.502 68.664 306.566 64.824 306.566 62.392C306.566 57.976 306.406 54.424 306.086 51.736C305.766 48.984 305.19 47.224 304.358 46.456C302.182 44.472 299.206 43.48 295.43 43.48C293.382 43.48 291.558 43.8 289.958 44.44C288.358 45.08 286.854 45.816 285.446 46.648C284.038 47.416 283.11 47.928 282.662 48.184L282.758 45.976C282.758 43.8 282.278 42.712 281.318 42.712ZM352.952 74.584C352.632 79.064 352.28 82.552 351.896 85.048C351.512 87.48 350.904 89.176 350.072 90.136C348.664 92.12 346.776 93.432 344.408 94.072C342.04 94.776 339.16 95.128 335.768 95.128C331.48 95.128 327.96 94.84 325.208 94.264C322.52 93.688 320.152 92.344 318.104 90.232L317.24 89.368C313.208 86.36 311.192 80.28 311.192 71.128V68.152C311.192 64.376 311.096 61.688 310.904 60.088C310.904 57.592 311 55.512 311.192 53.848C311.448 52.184 311.992 50.232 312.824 47.992L312.728 48.088C313.304 45.72 315.064 43.928 318.008 42.712C321.016 41.496 324.504 40.888 328.472 40.888C328.984 40.952 330.168 40.984 332.024 40.984L334.328 40.888C337.208 40.888 339.96 41.4 342.584 42.424C345.208 43.384 347.224 44.856 348.632 46.84L349.016 47.128C350.744 48.408 351.864 50.552 352.376 53.56C352.888 56.504 353.144 60.632 353.144 65.944C351.096 66.264 349.592 66.424 348.632 66.424C347.032 66.424 345.176 66.296 343.064 66.04C341.016 65.784 339.704 65.624 339.128 65.56C339.064 65.432 339 65.208 338.936 64.888C338.872 64.504 338.712 64.248 338.456 64.12C338.2 63.928 337.784 63.768 337.208 63.64C337.016 62.168 336.632 61.08 336.056 60.376C335.48 59.672 334.488 59.32 333.08 59.32C332.824 59.32 332.248 59.384 331.352 59.512H331.448C329.912 59.96 328.888 60.792 328.376 62.008C327.864 63.224 327.608 64.792 327.608 66.712V69.688C327.608 70.392 327.544 71.512 327.416 73.048L327.32 75.736C327.32 76.504 327.672 77.016 328.376 77.272C329.08 77.464 330.008 77.56 331.16 77.56C332.952 77.56 334.264 77.272 335.096 76.696H335C335.384 76.504 335.704 76.056 335.96 75.352C336.28 74.584 336.536 73.816 336.728 73.048C336.92 72.216 337.048 71.64 337.112 71.32C338.648 71.448 339.896 71.512 340.856 71.512L343.832 71.416C344.472 71.352 345.432 71.32 346.712 71.32C348.248 71.32 349.432 71.416 350.264 71.608L351.032 72.664L350.936 73.336L352.184 73.528L352.952 74.584ZM342.488 72.376C341.72 72.44 340.664 72.472 339.32 72.472C338.552 72.472 338.072 72.44 337.88 72.376C337.432 74.552 336.76 76.152 335.864 77.176C335.032 78.136 333.464 78.616 331.16 78.616C329.304 78.616 327.736 78.2 326.456 77.368C325.176 76.536 324.536 75.288 324.536 73.624V70.168C324.536 66.776 324.664 64.152 324.92 62.296C325.176 60.44 325.784 59 326.744 57.976C327.768 56.888 329.336 56.344 331.448 56.344C333.24 56.344 334.712 56.92 335.864 58.072C337.016 59.224 337.752 60.792 338.072 62.776C341.4 63.352 344.28 63.64 346.712 63.64C348.248 63.64 349.432 63.512 350.264 63.256C350.264 62.616 350.2 60.696 350.072 57.496C350.008 54.232 349.656 51.704 349.016 49.912C348.44 48.12 347.608 46.808 346.52 45.976C345.048 44.568 343.192 43.544 340.952 42.904C338.776 42.2 336.44 41.848 333.944 41.848L330.296 41.944C329.464 41.944 328.824 41.912 328.376 41.848C324.088 41.848 320.76 42.456 318.392 43.672C316.024 44.824 314.328 46.712 313.304 49.336C312.344 51.896 311.864 55.448 311.864 59.992C312.056 61.72 312.152 63.544 312.152 65.464L312.056 70.936C312.056 76.632 312.952 81.336 314.744 85.048C316.6 88.76 320.056 91.032 325.112 91.864L329.624 91.96C331.8 92.088 333.496 92.152 334.712 92.152C337.72 92.152 340.28 91.832 342.392 91.192C344.504 90.552 346.168 89.368 347.384 87.64C348.152 86.872 348.696 85.272 349.016 82.84C349.4 80.408 349.752 76.984 350.072 72.568C349.176 72.376 347.96 72.28 346.424 72.28L342.488 72.376ZM369.981 71.608C369.981 73.272 370.077 74.648 370.269 75.736C370.525 76.76 371.005 77.88 371.709 79.096V79.288C372.541 79.736 373.565 79.96 374.781 79.96C376.125 79.96 377.245 79.352 378.141 78.136C379.037 76.856 379.485 74.968 379.485 72.472V71.512C380.893 71.64 381.949 71.704 382.653 71.704L386.013 71.608C386.717 71.544 387.805 71.512 389.277 71.512C390.365 71.512 391.805 71.672 393.597 71.992L393.501 73.624L395.517 73.912C395.517 80.824 394.749 85.784 393.213 88.792C391.741 91.8 389.821 93.592 387.453 94.168C385.149 94.808 381.597 95.128 376.797 95.128C372.957 95.128 369.885 94.84 367.581 94.264C365.341 93.752 363.421 92.536 361.821 90.616C358.877 88.184 356.701 84.696 355.293 80.152C353.885 75.608 353.181 70.68 353.181 65.368C353.181 59.16 353.917 54.072 355.389 50.104C356.733 47.032 359.069 44.696 362.397 43.096C365.725 41.432 369.437 40.6 373.533 40.6C378.461 40.6 382.589 41.656 385.917 43.768C389.309 45.88 391.805 48.728 393.405 52.312C395.069 55.832 395.901 59.704 395.901 63.928C395.901 64.312 395.805 65.944 395.613 68.824C394.397 69.144 391.165 69.432 385.917 69.688C380.733 69.944 376.125 70.072 372.093 70.072C371.133 70.072 370.429 70.04 369.981 69.976V71.608ZM367.101 66.904C367.869 67.096 370.077 67.192 373.725 67.192C377.245 67.192 381.053 67.096 385.149 66.904C389.245 66.648 391.805 66.392 392.829 66.136C392.957 64.216 393.021 62.84 393.021 62.008C393.021 55.608 391.581 50.616 388.701 47.032C385.885 43.384 380.829 41.56 373.533 41.56C369.693 41.56 366.141 42.36 362.877 43.96C359.677 45.496 357.469 47.64 356.253 50.392C354.781 54.36 354.045 59.672 354.045 66.328C354.045 72.984 355.165 78.744 357.405 83.608C359.645 88.472 363.133 91.256 367.869 91.96L372.093 92.056C374.269 92.184 375.965 92.248 377.181 92.248C380.189 92.248 382.749 91.928 384.861 91.288C387.037 90.648 388.733 89.464 389.949 87.736C390.781 87.032 391.357 85.56 391.677 83.32C391.997 81.016 392.317 77.496 392.637 72.76C391.677 72.568 390.429 72.472 388.893 72.472L385.149 72.568C384.381 72.632 383.325 72.664 381.981 72.664C381.213 72.664 380.733 72.632 380.541 72.568V73.336C380.541 75.832 379.965 77.72 378.813 79C377.725 80.28 376.381 80.92 374.781 80.92C369.853 80.92 367.293 76.824 367.101 68.632V66.904ZM382.461 59.32C382.461 59.512 382.237 59.608 381.789 59.608C381.469 59.608 380.829 59.576 379.869 59.512C378.909 59.448 377.757 59.416 376.413 59.416L370.173 59.512C368.957 59.512 368.157 59.448 367.773 59.32C367.389 59.192 367.197 58.904 367.197 58.456C367.197 53.528 369.917 51.064 375.357 51.064C376.573 51.064 377.693 51.384 378.717 52.024C379.869 52.6 380.765 53.464 381.405 54.616C382.109 55.768 382.461 56.984 382.461 58.264V59.32ZM380.157 54.712C379.325 54.2 378.365 53.944 377.277 53.944C375.037 53.944 373.405 54.328 372.381 55.096C371.421 55.864 370.749 57.016 370.365 58.552L372.189 58.456H376.413L380.541 58.552L381.501 58.648V58.264C381.501 56.792 381.085 55.64 380.253 54.808L380.157 54.712Z" fill="#FCFCFC"/>
</mask>
<g mask="url(#mask0_7_13)">
<rect x="-116.5" y="-120.5" width="629.339" height="390" stroke="black"/>
<path d="M-32.4303 -3.36572L189.587 10.7979L43.1081 205.886L-32.4303 -3.36572Z" fill="#FF62C3"/>
<path d="M197.897 -2.29888L313.835 193.839L64.2555 182.232L197.897 -2.29888Z" fill="#29C7F7"/>
<path d="M209.714 18.4398L445.057 -18.2281L331.238 223.289L209.714 18.4398Z" fill="#8F81F9"/>
</g>
</svg>
